<?xml version="1.0" standalone="no"?><!DOCTYPE svg PUBLIC "-//W3C//DTD SVG 1.1//EN" "http://www.w3.org/Graphics/SVG/1.1/DTD/svg11.dtd"><svg t="1700029153603" class="icon" viewBox="0 0 1057 1024" version="1.1" xmlns="http://www.w3.org/2000/svg" p-id="17662" xmlns:xlink="http://www.w3.org/1999/xlink" width="206.4453125" height="200"><path d="M805.16129 1009.135484c-28.077419 0-50.374194-23.122581-48.72258-52.025807 1.651613-26.425806 24.774194-46.245161 51.2-46.245161h96.619355c28.077419 0 52.025806-18.993548 58.632258-46.245161l4.954838-18.993549h65.23871l-32.206452 81.754839 30.554839 81.754839H805.16129zM251.870968 1009.135484c28.077419 0 50.374194-23.122581 48.72258-52.025807-1.651613-26.425806-24.774194-46.245161-51.2-46.245161H152.774194c-28.077419 0-52.025806-18.993548-58.632259-46.245161l-4.954838-18.993549H23.948387l32.206452 81.754839-30.554839 81.754839h226.270968z" fill="#FAEDD6" p-id="17663"></path><path d="M949.677419 104.051613c-115.612903-115.612903-303.070968-115.612903-417.858064 0l-5.780645 5.780645c-115.612903-115.612903-303.070968-115.612903-417.858065 0s-115.612903 303.896774 0 419.509677L525.212903 949.677419 949.677419 523.56129c115.612903-115.612903 115.612903-303.896774 0-419.509677z" fill="#FA004B" p-id="17664"></path><path d="M300.593548 763.870968H161.858065c-40.464516 0-73.496774 33.032258-73.496775 73.496774s33.032258 73.496774 73.496775 73.496774h138.735483V763.870968zM756.43871 763.870968h138.735484c40.464516 0 73.496774 33.032258 73.496774 73.496774s-33.032258 73.496774-73.496774 73.496774H756.43871V763.870968z" fill="#36C9A3" p-id="17665"></path><path d="M967.845161 845.625806c0-49.548387-38.812903-83.406452-88.36129-83.406451h-701.935484c-49.548387 0-87.535484 33.858065-87.535484 83.406451V695.329032c0-49.548387 37.987097-96.619355 87.535484-96.619355h701.109678c49.548387 0 88.36129 47.070968 88.36129 96.619355v150.296774h0.825806z" fill="#FAEDD6" p-id="17666"></path><path d="M446.76129 682.116129a81.754839 81.754839 0 1 0 163.509678 0 81.754839 81.754839 0 1 0-163.509678 0Z" fill="#FFFFFF" p-id="17667"></path><path d="M951.329032 305.548387h-32.206451c0-99.096774-80.103226-179.2-179.2-179.2v-32.206452c116.43871 0 211.406452 94.967742 211.406451 211.406452z" fill="#FFFFFF" p-id="17668"></path><path d="M658.993548 665.6h29.729033v32.206452h-29.729033z" fill="#FA004B" p-id="17669"></path><path d="M710.193548 665.6h32.206452v32.206452H710.193548z" fill="#232323" p-id="17670"></path><path d="M759.741935 665.6h32.206452v32.206452H759.741935z" fill="#FA004B" p-id="17671"></path><path d="M806.812903 665.6h30.554839v32.206452h-30.554839z" fill="#232323" p-id="17672"></path><path d="M853.883871 665.6h34.683871v32.206452h-34.683871zM366.658065 665.6h34.68387v32.206452h-34.68387z" fill="#FA004B" p-id="17673"></path><path d="M317.935484 665.6h29.729032v32.206452h-29.729032z" fill="#232323" p-id="17674"></path><path d="M270.03871 665.6h30.554838v32.206452h-30.554838z" fill="#FA004B" p-id="17675"></path><path d="M221.316129 665.6h32.206452v32.206452h-32.206452z" fill="#232323" p-id="17676"></path><path d="M171.767742 665.6h32.206452v32.206452h-32.206452z" fill="#FA004B" p-id="17677"></path><path d="M918.296774 337.754839h32.206452v34.683871h-32.206452z" fill="#FFFFFF" p-id="17678"></path><path d="M552.464516 663.948387c-6.606452-6.606452-17.341935-6.606452-23.948387 0-6.606452-6.606452-17.341935-6.606452-23.948387 0s-6.606452 17.341935 0 23.948387l23.948387 23.948387 24.774194-24.774193c5.780645-4.954839 5.780645-16.516129-0.825807-23.122581z" fill="#FA004B" p-id="17679"></path><path d="M1057.032258 829.109677h-71.845161V695.329032c0-50.374194-33.032258-93.316129-76.8-107.354838l52.851613-52.851613c58.632258-59.458065 91.664516-137.909677 91.664516-221.316129s-32.206452-161.858065-91.664516-221.316129S824.154839 0.825806 740.748387 0.825806c-80.929032 0-156.903226 30.554839-215.535484 86.709678-122.219355-110.658065-311.329032-107.354839-429.419355 10.735484C37.16129 157.729032 4.954839 236.180645 4.954839 320.412903s32.206452 161.858065 91.664516 221.316129l47.896774 48.722581c-41.290323 15.690323-71.019355 57.806452-71.019355 105.703226v133.780645H0l38.812903 96.619355L0 1023.174194h251.870968c35.509677 0 65.23871-29.729032 65.238709-66.064517l-1.651612-161.032258h-32.206452l0.825806 103.225807c-9.083871-5.780645-20.645161-8.258065-32.206451-8.258065H154.425806c-28.077419 0-48.722581-19.819355-48.72258-45.419355 0-38.812903 29.729032-66.890323 72.670968-66.890322h155.251612l192.412904 193.23871L718.451613 778.735484h161.858064c42.941935 0 73.496774 28.077419 73.496775 66.064516 0 25.6-22.296774 45.419355-50.374194 45.419355H805.16129c-11.56129 0-23.122581 3.303226-32.206451 9.083871V796.903226h-32.206452v160.206451c0 36.335484 28.903226 66.064516 65.23871 66.064517H1057.032258l-38.812903-96.619355 38.812903-97.445162zM118.916129 518.606452C9.909677 408.774194 9.909677 231.225806 118.916129 121.393548s286.554839-109.832258 395.56129 0l11.561291 11.561291 17.341935-17.341936C595.406452 61.935484 665.6 33.032258 740.748387 33.032258s144.516129 28.903226 197.367742 82.580645c109.006452 109.832258 109.006452 287.380645 0 397.212903l-71.019355 71.019355H183.329032l-64.412903-65.238709z m474.83871 163.509677c0 33.032258-24.774194 61.109677-56.980645 65.23871h-16.516129c-32.206452-4.129032-56.980645-31.380645-56.980646-65.23871 0-36.335484 28.903226-65.23871 65.23871-65.23871s65.23871 28.903226 65.23871 65.23871z m-439.329033 241.96129h97.445162c18.167742 0 33.032258 14.864516 33.032258 33.032258s-14.864516 33.032258-33.032258 33.032258H47.896774l26.425807-64.412903-26.425807-64.412903H74.322581c7.432258 36.335484 39.63871 62.76129 80.103225 62.76129z m23.122581-176.72258c-28.903226 0-54.503226 9.083871-72.670968 25.6v-41.290323c0-18.167742 14.864516-33.858065 33.032258-33.858064h15.690323v-32.206452h-15.690323c-10.735484 0-20.645161 2.477419-29.729032 7.432258 9.083871-32.206452 37.987097-56.980645 69.367742-56.980645h279.122581c-12.387097 13.212903-21.470968 30.554839-24.774194 49.548387h-14.038709v32.206452h14.038709c3.303226 18.993548 11.56129 35.509677 23.122581 49.548387H177.548387z m347.664516 179.2L379.045161 779.56129h293.161291l-146.993549 146.993549z m354.270968-179.2H601.187097c12.387097-14.03871 20.645161-30.554839 23.12258-49.548387h14.864517v-32.206452h-14.864517c-3.303226-18.993548-12.387097-36.335484-24.774193-49.548387h279.122581c32.206452 0 61.109677 25.6 71.019354 57.806452-9.083871-4.954839-19.819355-7.432258-30.554838-7.432259h-16.516129v32.206452h16.516129c18.167742 0 33.858065 14.864516 33.858064 33.032258v42.116129c-18.993548-16.516129-45.419355-26.425806-73.496774-26.425806z m129.651613 243.612903H805.16129c-17.341935 0-31.380645-13.212903-32.206451-30.554839v-6.606451c1.651613-16.516129 15.690323-29.729032 32.206451-29.729033h97.445162c40.464516 0 73.496774-26.425806 80.929032-62.76129h25.6l-26.425807 64.412903 26.425807 65.23871z" fill="#232323" p-id="17680"></path></svg>