<?xml version="1.0" standalone="no"?><!DOCTYPE svg PUBLIC "-//W3C//DTD SVG 1.1//EN" "http://www.w3.org/Graphics/SVG/1.1/DTD/svg11.dtd"><svg t="1732002867157" class="icon" viewBox="0 0 1024 1024" version="1.1" xmlns="http://www.w3.org/2000/svg" p-id="1822" xmlns:xlink="http://www.w3.org/1999/xlink" width="128" height="128"><path d="M418.5 412.4v177.4c0 29.2 21.2 55.3 50.2 58.3 33.3 3.4 61.6-23 61.6-55.6v-79.8h0.1v-85.5c0-19 13.4-36.2 32.2-38.7 20-2.7 37.6 10.9 41.5 29.3v110c0 25.4 18.5 48.2 43.7 50.8 29 2.9 53.7-20 53.7-48.5v-96.3c11.5 3.4 23.7 5 36.4 4.5 58.8-2.4 107.3-51.8 108.5-110.6 1.3-63.5-49.8-115.5-113.1-115.5-1.2 0-2.4 0.1-3.6 0.2-25.3-35.2-66.5-58.2-113.1-58.2-33.4 0-63.9 1.6-87.9 20-2.2 1.7-5.2 1-6.4-1.5-19.8-43.7-63.8-74.2-114.9-74.2-69.7 0-126.2 56.5-126.2 126.2 0 7.4 0.8 14.7 2 21.8-2.2-1.2-4.4-2.4-6.6-3.5-43.2-20.7-94.3-1.9-119.8 38.6-41.2 65.3-8.2 133.1 47.4 151.8" fill="#FFFFFF" p-id="1823"></path><path d="M474.3 668.8c-2.5 0-5.1-0.1-7.7-0.4-19.2-1.9-36.8-11.3-49.6-26.5-12.3-14.5-19.1-33.1-19.1-52.2V412.4c0-11.3 9.2-20.5 20.5-20.5S439 401 439 412.4v177.4c0 19.4 13.9 36 31.7 37.8 10.1 1 19.8-2.2 27.3-9 7.5-6.7 11.7-16.3 11.7-26.2v-79.8c0-0.7 0-1.4 0.1-2.1v-83.4c0-29.9 21.5-55.2 50-59 29.9-4 58.1 16 64.3 45.5 0.3 1.4 0.4 2.8 0.4 4.2v110c0 15.6 11.1 28.9 25.3 30.4 8.1 0.8 15.8-1.7 21.8-7.2 6-5.4 9.4-13 9.4-20.9v-96.3c0-6.5 3.1-12.6 8.2-16.4 5.2-3.9 11.9-5.1 18.1-3.2 9.6 2.8 19.6 4.1 29.7 3.7 48-1.9 87.8-42.5 88.8-90.5 0.5-25.1-8.9-48.8-26.4-66.7-17.6-17.9-41-27.8-66.1-27.8h-0.7c-0.8 0.1-1.5 0.1-2.3 0.1-6.8 0.2-13.3-3-17.3-8.5-22.3-31.1-58.4-49.7-96.4-49.7-30 0-56.5 1.2-75.4 15.7-6.1 4.7-13.8 6.3-21.1 4.4-7.3-1.8-13.3-6.9-16.5-13.8-17.1-37.7-54.9-62.1-96.2-62.1-58.3 0-105.7 47.4-105.7 105.7 0 5.7 0.6 11.7 1.7 18.3 1.4 7.9-1.9 15.8-8.5 20.4-6.5 4.6-15.1 4.9-22 0.9-1.7-1-3.5-1.9-5.2-2.8-32.4-15.5-72.6-2.2-93.6 31-15.5 24.5-19.3 51.1-10.9 74.8 7.8 21.8 25.5 39.3 47.5 46.7 10.7 3.6 16.5 15.3 12.9 26-3.6 10.7-15.3 16.5-26 12.9-33.8-11.4-61.1-38.2-73.1-71.8-12.7-35.8-7.5-75 14.8-110.4 27.1-43 76.1-63.8 121.5-54.4 4.4-77 68.4-138.2 146.5-138.2 51.2 0 98.4 26.9 124.9 69.9 25.5-12.9 54.5-14.1 84.3-14.1 47.6 0 92.9 21.6 123.2 58.2 33.8 1.6 65.2 15.6 89 40 25.3 25.9 38.9 60.1 38.1 96.3-0.7 33.7-14.4 65.8-38.5 90.4-24.1 24.6-56 38.9-89.7 40.3-5.6 0.2-11.1 0.1-16.7-0.4V530c0 19.5-8.3 38.2-22.9 51.4-14.5 13.1-34 19.5-53.5 17.5-17.4-1.8-33.4-10.3-45-24a73.31 73.31 0 0 1-17.2-47.2V420.3c-2.2-6.8-9.2-12.7-18.2-11.5-8 1.1-14.4 9.1-14.4 18.3v85.5c0 0.7 0 1.4-0.1 2.1v77.7c0 21.5-9.2 42.2-25.3 56.7-13.8 12.7-32.2 19.7-51 19.7z" fill="" p-id="1824"></path><path d="M608.2 953.6H502.7c-127.8 0-231.4-103.6-231.4-231.4V489.3c0-30.8 25-55.8 55.8-55.8h456.7c30.8 0 55.8 25 55.8 55.8v232.9c-0.1 127.8-103.7 231.4-231.4 231.4z" fill="#F9F967" p-id="1825"></path><path d="M827.3 762.6h-44.9c-11 0-20-8.9-20-20V494.7c0-11 8.9-20 20-20h44.9c52.5 0 95.3 42.7 95.3 95.3v97.3c0 52.6-42.8 95.3-95.3 95.3z m-25-39.9h25c30.5 0 55.4-24.8 55.4-55.4V570c0-30.5-24.8-55.4-55.4-55.4h-25v208.1z" fill="" p-id="1826"></path><path d="M549.7 928.1H444.2c-67.4 0-130.8-26.3-178.4-73.9-47.7-47.7-73.9-111-73.9-178.4V442.9c0-42.3 34.4-76.7 76.7-76.7h456.7c42.3 0 76.7 34.4 76.7 76.7v232.9c0 67.4-26.3 130.8-73.9 178.4s-111 73.9-178.4 73.9z m-281.1-520c-19.2 0-34.8 15.6-34.8 34.8v232.9c0 116 94.4 210.4 210.4 210.4h105.4c116 0 210.4-94.4 210.4-210.4V442.9c0-19.2-15.6-34.8-34.8-34.8H268.6z" fill="" p-id="1827"></path><path d="M418.5 98.9c46.3 4 85.5 33.1 103.8 73.6 1.1 2.5 4.2 3.2 6.4 1.5 24-18.4 54.5-31.5 87.9-31.5 46.6 0 87.8 34.5 113.1 69.7 1.2 0 2.4-0.2 3.6-0.2 63.2 0 114.4 51.9 113.1 115.4-1.2 58.8-49.7 108.3-108.5 110.7-12.7 0.5-24.9-1.1-36.4-4.5V530c0 28.5-24.7 51.4-53.7 48.5-25.3-2.6-43.7-25.4-43.7-50.8v-110c-3.8-18.4-21.4-32-41.5-29.3-18.8 2.5-32.2 19.7-32.2 38.7v85.5h-0.1v79.8c0 32.6-28.4 59-61.6 55.6-29-2.9-50.2-29.1-50.2-58.3V98.9z" fill="#FFFFFF" p-id="1828"></path><path d="M474.3 668.8c-2.5 0-5.1-0.1-7.7-0.4-19.2-1.9-36.8-11.3-49.6-26.5-12.3-14.5-19.1-33.1-19.1-52.2V387.1c0-11.3 9.2-20.5 20.5-20.5s20.5 9.2 20.5 20.5v202.6c0 19.4 13.9 36 31.7 37.8 10.1 1 19.8-2.2 27.3-9 7.5-6.7 11.7-16.3 11.7-26.2v-79.8c0-0.7 0-1.4 0.1-2.1V427c0-29.9 21.5-55.2 50-59 29.9-4 58.1 16 64.3 45.5 0.3 1.4 0.4 2.8 0.4 4.2v110c0 15.6 11.1 28.9 25.3 30.4 8 0.8 15.8-1.7 21.8-7.2 5.9-5.4 9.4-13 9.4-20.9v-96.3c0-6.5 3.1-12.6 8.2-16.4 5.2-3.9 11.9-5.1 18.1-3.2 9.6 2.8 19.6 4.1 29.7 3.7 48-1.9 87.8-42.6 88.8-90.6 0.5-25.1-8.9-48.8-26.4-66.7-17.6-17.9-41-27.8-66.1-27.8h-0.7c-0.8 0.1-1.5 0.1-2.3 0.1-6.8 0.2-13.3-3-17.3-8.5-10.3-14.4-47.7-61.2-96.4-61.2-33 0-59.2 14.8-75.4 27.3-6.1 4.7-13.8 6.3-21.1 4.4-7.3-1.8-13.3-6.9-16.5-13.8-15.8-34.7-49.1-58.4-86.9-61.7-11.3-1-19.6-10.9-18.7-22.2s10.9-19.6 22.2-18.7c46.1 4 87.4 29.7 111.6 68.5 21.1-13 49.9-25 84.7-25 25.7 0 51.3 8.5 76.1 25.2 20.5 13.9 36.3 30.7 47.3 44.5 33.7 1.6 65 15.7 88.8 39.9 25.3 25.9 38.9 60 38.2 96.3-0.7 33.7-14.4 65.8-38.5 90.5-24.1 24.6-56 38.9-89.7 40.3-5.6 0.2-11.2 0.1-16.7-0.4V530c0 19.5-8.3 38.2-22.9 51.4-14.5 13.1-34 19.5-53.5 17.5-17.4-1.8-33.4-10.3-45-24a73.31 73.31 0 0 1-17.2-47.2V420.3c-2.2-6.8-9.2-12.7-18.2-11.5-8 1.1-14.4 9.1-14.4 18.3v85.5c0 0.7 0 1.4-0.1 2.1v77.7c0 21.5-9.2 42.2-25.3 56.7-13.8 12.7-32.2 19.7-51 19.7zM289.8 714.1c-11.3 0-20.5-9.2-20.5-20.5v-157c0-11.3 9.2-20.5 20.5-20.5s20.5 9.2 20.5 20.5v157c0 11.3-9.2 20.5-20.5 20.5z" fill="" p-id="1829"></path></svg>